<svg xmlns="http://www.w3.org/2000/svg" width="64" height="64" viewBox="0 0 64 64" fill="none">
  <!-- Background circle with gradient -->
  <defs>
    <linearGradient id="bgGradient" x1="0%" y1="0%" x2="100%" y2="100%">
      <stop offset="0%" style="stop-color:#3B82F6;stop-opacity:1" />
      <stop offset="100%" style="stop-color:#8B5CF6;stop-opacity:1" />
    </linearGradient>
    <linearGradient id="iconGradient" x1="0%" y1="0%" x2="100%" y2="100%">
      <stop offset="0%" style="stop-color:#FFFFFF;stop-opacity:1" />
      <stop offset="100%" style="stop-color:#E2E8F0;stop-opacity:1" />
    </linearGradient>
  </defs>
  
  <!-- Main background circle -->
  <circle cx="32" cy="32" r="30" fill="url(#bgGradient)" stroke="url(#bgGradient)" stroke-width="2"/>
  
  <!-- Video camera body -->
  <rect x="18" y="24" width="28" height="16" rx="3" fill="url(#iconGradient)" stroke="url(#iconGradient)" stroke-width="1"/>
  
  <!-- Camera lens -->
  <circle cx="32" cy="32" r="6" fill="url(#iconGradient)" stroke="url(#iconGradient)" stroke-width="1"/>
  <circle cx="32" cy="32" r="4" fill="none" stroke="#3B82F6" stroke-width="2"/>
  
  <!-- Camera grip -->
  <rect x="44" y="26" width="3" height="12" rx="1.5" fill="url(#iconGradient)" stroke="url(#iconGradient)" stroke-width="1"/>
  
  <!-- Conversion arrows -->
  <g transform="translate(32, 32)">
    <!-- Left arrow -->
    <path d="M-16 -8 L-20 -8 L-18 -10 L-20 -12 L-18 -14 L-20 -16 L-16 -16 L-16 -8 Z" fill="#10B981"/>
    <path d="M-20 -8 L-18 -10 L-20 -12 L-18 -14 L-20 -16" stroke="#10B981" stroke-width="1.5" fill="none"/>
    
    <!-- Right arrow -->
    <path d="M16 8 L20 8 L18 10 L20 12 L18 14 L20 16 L16 16 L16 8 Z" fill="#F59E0B"/>
    <path d="M20 8 L18 10 L20 12 L18 14 L20 16" stroke="#F59E0B" stroke-width="1.5" fill="none"/>
  </g>
  
  <!-- Play button overlay -->
  <circle cx="32" cy="32" r="8" fill="rgba(59, 130, 246, 0.2)" stroke="rgba(59, 130, 246, 0.3)" stroke-width="1"/>
  <polygon points="30,28 30,36 38,32" fill="#3B82F6"/>
  
  <!-- Sparkle effects -->
  <g fill="#FFFFFF" opacity="0.8">
    <circle cx="12" cy="16" r="1.5"/>
    <circle cx="52" cy="48" r="1"/>
    <circle cx="48" cy="12" r="1.2"/>
    <circle cx="16" cy="52" r="0.8"/>
  </g>
</svg>
